<?xml version="1.0" encoding="utf-8"?>
<svg xmlns="http://www.w3.org/2000/svg" viewBox="0 0 500 500" xmlns:bx="https://boxy-svg.com">
  <defs>
    <bx:export>
      <bx:file format="svg"/>
    </bx:export>
  </defs>
  <g transform="matrix(0.258511, 0, 0, 0.258511, -129.903244, -72.63652)" style="">
    <path style="opacity:0.994" fill="#15a077" d="M 987.5,1699.5 C 986.833,1698.5 986.167,1697.5 985.5,1696.5C 993.5,1695.83 1001.5,1695.17 1009.5,1694.5C 1036.91,1693.32 1064.24,1691.15 1091.5,1688C 1102.83,1687.33 1114.17,1687.33 1125.5,1688C 1233.76,1814.49 1370.43,1891.83 1535.5,1920C 1700.88,1936.66 1851.54,1897.66 1987.5,1803C 2082.94,1729.59 2156.1,1638.42 2207,1529.5C 2220.12,1500.13 2230.46,1469.79 2238,1438.5C 2249.53,1390.49 2256.53,1341.83 2259,1292.5C 2259.02,1257.46 2259.85,1222.46 2261.5,1187.5C 2261.82,1186.35 2262.48,1185.52 2263.5,1185C 2283.87,1181.21 2303.54,1175.21 2322.5,1167C 2325,1165.33 2327.33,1163.49 2329.5,1161.5C 2323.87,1156.68 2317.53,1152.84 2310.5,1150C 2289.71,1142.06 2268.71,1134.89 2247.5,1128.5C 2233.52,1061.71 2208.69,999.375 2173,941.5C 2155.58,914.994 2137.91,888.661 2120,862.5C 2089.5,828 2057,795.5 2022.5,765C 1938.81,696.326 1843.81,649.659 1737.5,625C 1591.55,596.113 1452.21,615.279 1319.5,682.5C 1247.06,616.533 1170.72,555.7 1090.5,500C 1027.19,456.339 962.527,414.672 896.5,375C 893.335,372.665 890.335,370.165 887.5,367.5C 884.479,364.794 882.479,361.461 881.5,357.5C 937.148,375.656 991.481,397.156 1044.5,422C 1071.62,434.727 1098.62,447.727 1125.5,461C 1179.5,489 1233.5,517 1287.5,545C 1291.04,545.571 1294.38,544.904 1297.5,543C 1326.15,529.84 1355.15,517.507 1384.5,506C 1398.01,500.621 1412.01,497.788 1426.5,497.5C 1428.57,450.349 1428.9,403.182 1427.5,356C 1427.49,348.436 1428.15,340.936 1429.5,333.5C 1468.81,332.184 1508.15,332.184 1547.5,333.5C 1547.65,380.838 1547.31,428.171 1546.5,475.5C 1588.83,475.5 1631.17,475.5 1673.5,475.5C 1674.49,427.806 1674.82,380.139 1674.5,332.5C 1712.56,332.668 1750.56,333.668 1788.5,335.5C 1791.42,332.966 1794.42,332.966 1797.5,335.5C 1797.81,387.492 1797.81,439.492 1797.5,491.5C 1991.28,546.872 2145.11,657.206 2259,822.5C 2332.95,937.017 2376.29,1062.35 2389,1198.5C 2395.74,1294.49 2385.07,1388.49 2357,1480.5C 2343.3,1531.54 2323.3,1579.88 2297,1625.5C 2241.24,1721.7 2169.07,1803.86 2080.5,1872C 2026.62,1909.45 1968.96,1940.45 1907.5,1965C 1871.89,1979.43 1836.05,1993.26 1800,2006.5C 1798.86,2016.07 1798.36,2025.74 1798.5,2035.5C 1799.31,2076.83 1799.65,2118.16 1799.5,2159.5C 1758.19,2161.73 1716.86,2162.06 1675.5,2160.5C 1674.6,2116.18 1673.93,2071.84 1673.5,2027.5C 1630.93,2026.7 1588.43,2026.7 1546,2027.5C 1545.4,2029.14 1544.9,2030.8 1544.5,2032.5C 1545.69,2075.81 1546.69,2119.15 1547.5,2162.5C 1539.14,2162.74 1530.81,2162.41 1522.5,2161.5C 1491.19,2162.75 1459.85,2163.41 1428.5,2163.5C 1427.86,2111.17 1427.36,2058.84 1427,2006.5C 1246.99,1951.59 1100.49,1849.25 987.5,1699.5 Z"/>
  </g>
  <g transform="matrix(0.258511, 0, 0, 0.258511, -129.903244, -72.63652)" style="">
    <path style="opacity:0.999" fill="#fefefe" d="M 887.5,367.5 C 890.335,370.165 893.335,372.665 896.5,375C 962.527,414.672 1027.19,456.339 1090.5,500C 1170.72,555.7 1247.06,616.533 1319.5,682.5C 1452.21,615.279 1591.55,596.113 1737.5,625C 1843.81,649.659 1938.81,696.326 2022.5,765C 2057,795.5 2089.5,828 2120,862.5C 2137.91,888.661 2155.58,914.994 2173,941.5C 2208.69,999.375 2233.52,1061.71 2247.5,1128.5C 2268.71,1134.89 2289.71,1142.06 2310.5,1150C 2317.53,1152.84 2323.87,1156.68 2329.5,1161.5C 2327.33,1163.49 2325,1165.33 2322.5,1167C 2303.54,1175.21 2283.87,1181.21 2263.5,1185C 2262.48,1185.52 2261.82,1186.35 2261.5,1187.5C 2259.85,1222.46 2259.02,1257.46 2259,1292.5C 2256.53,1341.83 2249.53,1390.49 2238,1438.5C 2230.46,1469.79 2220.12,1500.13 2207,1529.5C 2156.1,1638.42 2082.94,1729.59 1987.5,1803C 1851.54,1897.66 1700.88,1936.66 1535.5,1920C 1370.43,1891.83 1233.76,1814.49 1125.5,1688C 1114.17,1687.33 1102.83,1687.33 1091.5,1688C 1064.24,1691.15 1036.91,1693.32 1009.5,1694.5C 1001.14,1694.17 992.807,1694.5 984.5,1695.5C 984.624,1696.11 984.957,1696.44 985.5,1696.5C 986.167,1697.5 986.833,1698.5 987.5,1699.5C 844.768,1686.16 702.101,1672.16 559.5,1657.5C 560.243,1656.82 560.909,1656.15 561.5,1655.5C 582.828,1650.33 604.161,1645.17 625.5,1640C 664.595,1632.38 703.595,1624.38 742.5,1616C 788.349,1604.04 834.349,1592.7 880.5,1582C 903.939,1575.74 927.273,1569.08 950.5,1562C 973.437,1554.02 996.27,1545.86 1019,1537.5C 972.705,1414.56 958.705,1287.9 977,1157.5C 990.621,1077.97 1016.95,1002.97 1056,932.5C 1073.67,902.83 1093.67,874.83 1116,848.5C 1133.02,829.649 1149.85,810.649 1166.5,791.5C 1160.02,770.549 1150.86,750.882 1139,732.5C 1127.77,715.275 1115.77,698.608 1103,682.5C 1101.87,684.141 1100.37,685.141 1098.5,685.5C 1028.14,579.482 957.807,473.482 887.5,367.5 Z"/>
  </g>
  <g transform="matrix(0.258511, 0, 0, 0.258511, -129.903244, -72.63652)" style="">
    <path style="opacity:1" fill="#15a077" d="M 1552.5,664.5 C 1591.53,664.147 1630.53,664.981 1669.5,667C 1799.42,677.162 1913.09,724.828 2010.5,810C 2029.3,826.468 2047.14,843.968 2064,862.5C 2082.95,889.114 2102.28,915.448 2122,941.5C 2160.96,994.43 2187.79,1053.1 2202.5,1117.5C 2179.77,1114.82 2157.77,1109.32 2136.5,1101C 2116.82,1077.81 2092.82,1060.48 2064.5,1049C 2025.94,1032.11 1985.61,1022.94 1943.5,1021.5C 1901.02,1024.36 1860.36,1034.53 1821.5,1052C 1791.31,1067.1 1760.64,1081.1 1729.5,1094C 1706.76,1102.26 1683.42,1107.59 1659.5,1110C 1634.64,1060.42 1606.14,1013.26 1574,968.5C 1509.41,878.709 1438.25,794.042 1360.5,714.5C 1380.53,702.652 1401.87,693.818 1424.5,688C 1439.39,684.193 1454.39,680.86 1469.5,678C 1497.35,673.732 1525.02,669.232 1552.5,664.5 Z"/>
  </g>
  <g transform="matrix(0.258511, 0, 0, 0.258511, -129.903244, -72.63652)" style="">
    <path style="opacity:0.994" fill="#15a077" d="M 561.5,1655.5 C 556.49,1653.77 551.49,1651.94 546.5,1650C 554.924,1645.12 563.591,1640.79 572.5,1637C 588.519,1633.22 604.186,1628.22 619.5,1622C 676.326,1599.72 732.993,1577.06 789.5,1554C 821.75,1541.53 854.084,1529.36 886.5,1517.5C 875.684,1489.24 867.518,1460.24 862,1430.5C 840.671,1321.78 839.004,1212.78 857,1103.5C 879.579,975.922 932.245,862.922 1015,764.5C 1040.84,735.824 1068.67,709.491 1098.5,685.5C 1100.37,685.141 1101.87,684.141 1103,682.5C 1115.77,698.608 1127.77,715.275 1139,732.5C 1150.86,750.882 1160.02,770.549 1166.5,791.5C 1149.85,810.649 1133.02,829.649 1116,848.5C 1093.67,874.83 1073.67,902.83 1056,932.5C 1016.95,1002.97 990.621,1077.97 977,1157.5C 958.705,1287.9 972.705,1414.56 1019,1537.5C 996.27,1545.86 973.437,1554.02 950.5,1562C 927.273,1569.08 903.939,1575.74 880.5,1582C 834.349,1592.7 788.349,1604.04 742.5,1616C 703.595,1624.38 664.595,1632.38 625.5,1640C 604.161,1645.17 582.828,1650.33 561.5,1655.5 Z"/>
  </g>
  <g transform="matrix(0.258511, 0, 0, 0.258511, -129.903244, -72.63652)" style="">
    <path style="opacity:1" fill="#15a077" d="M 1184.5,833.5 C 1189.49,832.695 1193.32,834.362 1196,838.5C 1206.86,853.712 1216.53,869.712 1225,886.5C 1256.78,951.852 1285.45,1018.52 1311,1086.5C 1323.36,1121.58 1333.69,1157.25 1342,1193.5C 1345.21,1215.1 1347.88,1236.76 1350,1258.5C 1351.76,1277.27 1349.76,1295.61 1344,1313.5C 1342.25,1317.33 1340.25,1320.99 1338,1324.5C 1285.15,1388.79 1222.32,1440.62 1149.5,1480C 1122.08,1494.04 1093.75,1505.88 1064.5,1515.5C 1062.97,1515.47 1061.8,1514.8 1061,1513.5C 1040.03,1454.97 1025.03,1394.97 1016,1333.5C 1011.32,1251.62 1018.99,1170.95 1039,1091.5C 1066.64,993.173 1115.14,907.173 1184.5,833.5 Z"/>
  </g>
  <g transform="matrix(0.258511, 0, 0, 0.258511, -129.903244, -72.63652)" style="">
    <path style="opacity:1" fill="#15a077" d="M 2211.5,1191.5 C 2214.5,1191.5 2217.5,1191.5 2220.5,1191.5C 2220.73,1244.51 2216.56,1297.18 2208,1349.5C 2194.54,1455.36 2155.54,1550.36 2091,1634.5C 2011.7,1738.28 1909.2,1809.12 1783.5,1847C 1697.77,1873.87 1610.43,1881.2 1521.5,1869C 1474.11,1859.43 1428.11,1845.43 1383.5,1827C 1307.99,1791.86 1240.83,1745.02 1182,1686.5C 1180.59,1684.35 1179.76,1682.02 1179.5,1679.5C 1231.04,1670.02 1282.71,1661.19 1334.5,1653C 1358.72,1648.28 1382.72,1642.61 1406.5,1636C 1454.83,1619.67 1503.17,1603.33 1551.5,1587C 1655.03,1547.25 1751.7,1495.58 1841.5,1432C 1856.68,1420.57 1871.68,1408.91 1886.5,1397C 1920.86,1363.63 1955.53,1330.63 1990.5,1298C 2054.63,1243.27 2128.3,1207.77 2211.5,1191.5 Z"/>
  </g>
  <g transform="matrix(0.258511, 0, 0, 0.258511, -129.903244, -72.63652)" style="">
    <path style="opacity:1" fill="#c3e6dc" d="M 1009.5,1694.5 C 1001.5,1695.17 993.5,1695.83 985.5,1696.5C 984.957,1696.44 984.624,1696.11 984.5,1695.5C 992.807,1694.5 1001.14,1694.17 1009.5,1694.5 Z"/>
  </g>
</svg>