<?xml version="1.0" standalone="no"?>
<!DOCTYPE svg PUBLIC "-//W3C//DTD SVG 20010904//EN"
 "http://www.w3.org/TR/2001/REC-SVG-20010904/DTD/svg10.dtd">
<svg version="1.0" xmlns="http://www.w3.org/2000/svg"
 width="560.000000pt" height="560.000000pt" viewBox="0 0 560.000000 560.000000"
 preserveAspectRatio="xMidYMid meet">

<g transform="translate(0.000000,560.000000) scale(0.100000,-0.100000)"
fill="#4A9E7A" stroke="none">
<path d="M2360 4947 l0 -203 -55 -11 c-30 -7 -108 -35 -172 -63 -70 -30 -125
-49 -138 -46 -11 3 -85 40 -165 82 -313 166 -800 387 -817 370 -3 -3 21 -22
53 -42 452 -286 709 -471 947 -682 l67 -60 103 44 c201 85 402 125 627 126
248 0 458 -51 705 -171 269 -131 491 -326 655 -576 113 -171 196 -358 225
-502 8 -38 17 -46 75 -62 73 -21 140 -53 140 -66 0 -14 -52 -36 -126 -55 l-41
-10 -6 -187 c-12 -388 -84 -633 -267 -913 -285 -434 -706 -688 -1228 -741
-259 -27 -516 23 -789 151 -183 86 -330 193 -484 352 l-85 88 -100 -10 c-54
-5 -130 -10 -167 -10 l-68 0 60 -73 c84 -102 269 -280 369 -356 180 -136 411
-258 610 -322 l72 -23 0 -193 0 -193 140 0 140 0 0 170 0 170 163 0 164 0 6
-112 c4 -62 7 -139 7 -170 l0 -58 145 0 145 0 0 193 0 193 128 49 c392 148
587 268 812 502 200 207 340 424 419 647 38 107 85 282 103 386 20 117 17 492
-5 605 -51 253 -142 494 -268 703 -230 383 -642 709 -1071 848 l-118 38 0 197
0 197 -151 1 -151 2 2 -88 c1 -48 2 -130 1 -180 l-1 -93 -165 0 -165 0 0 180
0 180 -140 0 -140 0 0 -203z"/>
<path d="M2609 4315 c-131 -21 -263 -57 -382 -104 l-28 -11 106 -122 c187
-216 468 -591 576 -769 49 -80 57 -88 85 -89 47 0 143 32 284 95 186 84 273
107 400 107 171 -1 280 -37 441 -147 69 -48 171 -87 185 -72 9 9 -83 233 -133
325 -109 202 -318 426 -522 560 -100 66 -288 153 -392 182 -182 51 -463 71
-620 45z"/>
<path d="M1460 4204 c-319 -293 -505 -680 -551 -1149 -23 -238 12 -612 75
-792 13 -40 22 -74 18 -77 -4 -2 -25 -9 -47 -16 -22 -7 -179 -68 -350 -135
-171 -68 -328 -128 -350 -134 -22 -6 -51 -18 -65 -27 l-25 -15 35 5 c72 10
462 96 660 145 161 41 439 123 458 137 2 1 -13 52 -33 114 -60 187 -78 313
-79 555 -1 243 12 336 75 528 75 231 167 392 325 571 l87 99 -21 48 c-21 52
-122 209 -134 209 -3 0 -39 -30 -78 -66z"/>
<path d="M1703 3851 c-164 -191 -287 -438 -337 -681 -26 -129 -38 -250 -38
-400 -1 -156 18 -267 80 -465 27 -86 30 -90 56 -88 40 3 227 95 325 160 106
71 317 273 342 328 47 103 2 361 -114 661 -90 230 -234 522 -262 531 -5 2 -29
-19 -52 -46z"/>
<path d="M4200 2974 c-107 -32 -205 -76 -295 -132 -89 -56 -151 -109 -295
-248 -282 -273 -632 -473 -1120 -637 -229 -78 -301 -96 -555 -137 -104 -18
-192 -34 -195 -37 -11 -11 208 -188 315 -253 163 -100 362 -177 546 -210 78
-14 293 -14 389 0 108 16 281 63 385 105 396 160 702 480 850 890 49 135 105
478 105 642 0 52 -6 53 -130 17z"/>
</g>
</svg>
