<?xml version="1.0" encoding="utf-8"?>
<svg xmlns="http://www.w3.org/2000/svg" viewBox="0 0 500 500" style="shape-rendering: geometricprecision;" xmlns:bx="https://boxy-svg.com">
  <defs>
    <bx:export>
      <bx:file format="svg"/>
    </bx:export>
  </defs>
  <g transform="matrix(0.226748, 0, 0, 0.226748, -123.95047, -49.214077)" style="">
    <path style="opacity:0.995" fill="#15a077" d="M 1680.5 282.349 C 1721.51 282.115 1762.51 282.449 1803.5 283.349 C 1804.22 329.023 1804.417 364.649 1804.565 409.948 C 1894.395 429.946 1983.33 457.998 2067.5 495 C 2234.14 576.974 2364.98 697.807 2460 857.5 C 2550.7 1016.31 2592.37 1187.31 2585 1370.5 C 2581.59 1455.31 2565.59 1537.64 2537 1617.5 C 2461.64 1826.5 2329.47 1989 2140.5 2105 C 2067.02 2148.74 1989.681 2184.596 1906.5 2205 C 1857.877 2216.927 1853.997 2217.197 1805.001 2225.5 C 1805.001 2265.83 1804.687 2304.152 1804.687 2344.482 C 1763.687 2344.482 1722.687 2344.482 1681.687 2344.482 C 1681.467 2303.152 1681.451 2263.83 1681.001 2222.5 C 1641.271 2222.53 1583.291 2221.394 1543.681 2218.694 C 1543.681 2260.024 1543.681 2301.364 1543.681 2342.694 C 1504.671 2342.944 1465.671 2342.614 1426.681 2341.694 C 1426.631 2305.684 1427.301 2269.684 1428.681 2233.694 C 1428.351 2226.364 1428.011 2219.024 1427.681 2211.694 C 1234.171 2157.234 1045.15 2052.04 919 1896.5 C 795.59 1743.03 727.923 1567.36 716 1369.5 C 713.277 1288.85 719.277 1208.85 734 1129.5 C 759.366 1008.82 807.032 898.149 877 797.5 C 924.223 729.92 979.057 668.753 1041.5 614 C 1094.83 571.693 1151.16 533.693 1210.5 500 C 1279.62 464.278 1352.28 438.445 1428.5 422.5 C 1429.11 374.836 1429.44 327.169 1429.5 279.5 C 1471.17 279.447 1512.84 279.78 1554.5 280.5 C 1554.33 321.168 1554.5 361.835 1555 402.5 C 1555.5 403 1556 403.5 1556.5 404 C 1597.42 403.648 1638.42 403.814 1679.5 404.5 C 1680.11 360.169 1680.44 326.685 1680.5 282.349 Z"/>
  </g>
  <g transform="matrix(0.226748, 0, 0, 0.226748, -123.95047, -49.214077)" style="">
    <path style="opacity:1" fill="#fefefe" d="M 1586.5,527.5 C 1719.39,521.925 1847.39,544.092 1970.5,594C 2064.87,635.072 2148.37,691.906 2221,764.5C 2342.17,888.164 2416.17,1036.16 2443,1208.5C 2463.81,1349.3 2447.48,1485.64 2394,1617.5C 2331.86,1760.64 2237.03,1877.14 2109.5,1967C 1953.65,2069.47 1782.31,2115.14 1595.5,2104C 1515.12,2100.26 1437.12,2084.59 1361.5,2057C 1325.14,2044.32 1290.14,2028.65 1256.5,2010C 1101.1,1919.93 986.269,1793.1 912,1629.5C 841.977,1458.92 830.977,1284.59 879,1106.5C 910.567,995.669 963.234,896.669 1037,809.5C 1160.54,665.936 1315.7,575.102 1502.5,537C 1514.13,535.088 1525.8,533.421 1537.5,532C 1554.17,531.327 1570.5,529.827 1586.5,527.5 Z"/>
  </g>
  <g transform="matrix(0.226748, 0, 0, 0.226748, -123.95047, -49.214077)" style="">
    <path style="opacity:1" fill="#16a077" d="M 1659.5,645.5 C 1657.83,646.167 1656.17,646.833 1654.5,647.5C 1622.51,651.164 1591.17,657.998 1560.5,668C 1468.86,695.657 1384.52,737.324 1307.5,793C 1169.69,900.366 1088.86,1041.2 1065,1215.5C 1048.57,1351.91 1074.57,1479.58 1143,1598.5C 1183,1670.56 1236.17,1731.39 1302.5,1781C 1321.33,1793.25 1340.33,1805.25 1359.5,1817C 1387.62,1831.48 1416.95,1842.82 1447.5,1851C 1463.02,1854.21 1478.69,1855.21 1494.5,1854C 1502.14,1853.37 1509.47,1851.54 1516.5,1848.5C 1516.83,1844.83 1517.17,1841.17 1517.5,1837.5C 1513.42,1754.88 1511.92,1672.21 1513,1589.5C 1517.77,1505.67 1528.77,1422.67 1546,1340.5C 1556.42,1294.9 1571.42,1250.9 1591,1208.5C 1591.67,1206.5 1591.67,1204.5 1591,1202.5C 1589.61,1201.45 1588.11,1201.28 1586.5,1202C 1511.51,1246.81 1479.35,1312.98 1490,1400.5C 1489,1402.5 1488,1404.5 1487,1406.5C 1475.19,1395.88 1467.19,1382.88 1463,1367.5C 1453.77,1326.17 1456.11,1285.51 1470,1245.5C 1474.19,1233.44 1480.19,1222.44 1488,1212.5C 1490.04,1208.25 1492.21,1204.09 1494.5,1200C 1419.47,1224.48 1365.97,1272.98 1334,1345.5C 1324.09,1368.32 1315.59,1391.65 1308.5,1415.5C 1306.58,1414.29 1304.74,1412.96 1303,1411.5C 1297.58,1352.68 1307.92,1296.68 1334,1243.5C 1338,1236.83 1342,1230.17 1346,1223.5C 1359.39,1206.44 1373.89,1190.27 1389.5,1175C 1412.81,1155.84 1439.15,1142.17 1468.5,1134C 1486.63,1129.11 1504.96,1125.11 1523.5,1122C 1458.56,1093.19 1390.89,1084.19 1320.5,1095C 1282.91,1103.98 1246.91,1117.31 1212.5,1135C 1190.65,1147.84 1171.48,1164.01 1155,1183.5C 1154.52,1184.45 1154.35,1185.45 1154.5,1186.5C 1150.71,1185.97 1147.04,1184.97 1143.5,1183.5C 1158.77,1153.27 1177.27,1125.27 1199,1099.5C 1256.02,1039.26 1326.19,1011.76 1409.5,1017C 1441.71,1018.76 1472.71,1025.76 1502.5,1038C 1518.25,1046.29 1533.41,1055.45 1548,1065.5C 1548.67,1064.5 1548.67,1063.5 1548,1062.5C 1541.35,1051.18 1533.19,1041.01 1523.5,1032C 1459.84,979.857 1386.84,949.691 1304.5,941.5C 1298.17,940.833 1291.83,940.167 1285.5,939.5C 1307.19,928.487 1330.19,921.32 1354.5,918C 1413.46,908.528 1470.46,915.195 1525.5,938C 1568.99,962.155 1601.49,996.655 1623,1041.5C 1627.78,1052.06 1632.28,1062.73 1636.5,1073.5C 1637.8,1072.91 1638.63,1071.91 1639,1070.5C 1646.78,1040.6 1660.12,1013.6 1679,989.5C 1700.43,966.86 1725.93,950.36 1755.5,940C 1783.72,929.783 1812.38,921.45 1841.5,915C 1837.98,918.349 1834.65,921.849 1831.5,925.5C 1782.36,943.302 1739.19,970.302 1702,1006.5C 1687.34,1021.82 1675.01,1038.82 1665,1057.5C 1661.99,1063.18 1660.66,1069.18 1661,1075.5C 1664.37,1076.83 1667.53,1076.33 1670.5,1074C 1676.52,1065.65 1683.85,1058.65 1692.5,1053C 1747.23,1020.39 1806.23,1008.39 1869.5,1017C 1901.71,1023.61 1930.71,1036.94 1956.5,1057C 1965.39,1064.99 1973.22,1073.82 1980,1083.5C 1991.13,1101.32 2001.47,1119.65 2011,1138.5C 2011.67,1140.83 2011.67,1143.17 2011,1145.5C 1995.15,1134.49 1977.98,1125.99 1959.5,1120C 1895.59,1098.81 1830.59,1094.48 1764.5,1107C 1758.34,1107.64 1755.34,1110.81 1755.5,1116.5C 1825.76,1103.7 1892.76,1113.54 1956.5,1146C 2006.38,1176.41 2031.05,1221.07 2030.5,1280C 2029.32,1321.94 2022.15,1362.77 2009,1402.5C 2007.61,1403.55 2006.11,1403.72 2004.5,1403C 1996.62,1371.08 1984.45,1340.91 1968,1312.5C 1947.38,1280.45 1920.21,1255.62 1886.5,1238C 1865.26,1227.03 1843.59,1217.03 1821.5,1208C 1817.6,1206.73 1813.6,1206.23 1809.5,1206.5C 1809.29,1208.92 1809.63,1211.25 1810.5,1213.5C 1819.39,1222.92 1826.55,1233.59 1832,1245.5C 1867.23,1323.55 1862.89,1399.21 1819,1472.5C 1807.64,1489.03 1796.47,1505.7 1785.5,1522.5C 1783.24,1523.65 1780.9,1523.81 1778.5,1523C 1777.94,1522.28 1777.61,1521.44 1777.5,1520.5C 1795.44,1467.09 1797.27,1413.09 1783,1358.5C 1774.16,1322.6 1759.16,1289.6 1738,1259.5C 1731.81,1252.31 1725.31,1245.48 1718.5,1239C 1715.85,1238.5 1713.19,1238.34 1710.5,1238.5C 1725.05,1292.38 1718.88,1343.71 1692,1392.5C 1682.65,1408.06 1670.48,1420.89 1655.5,1431C 1651.46,1431.83 1647.46,1431.66 1643.5,1430.5C 1656.68,1409.46 1664.18,1386.46 1666,1361.5C 1669.1,1318.41 1660.1,1278.08 1639,1240.5C 1634.58,1234.07 1629.41,1228.24 1623.5,1223C 1620.17,1222.17 1616.83,1221.33 1613.5,1220.5C 1612.56,1220.61 1611.72,1220.94 1611,1221.5C 1588.06,1286.13 1576.89,1352.8 1577.5,1421.5C 1577.86,1484.42 1584.03,1546.76 1596,1608.5C 1607.58,1650.64 1622.24,1691.64 1640,1731.5C 1655.39,1764.19 1674.73,1794.19 1698,1821.5C 1715.5,1840.33 1733,1859.17 1750.5,1878C 1756.73,1883.08 1763.9,1885.58 1772,1885.5C 1845.44,1873.35 1915.28,1850.19 1981.5,1816C 2051.12,1777.73 2109.62,1726.56 2157,1662.5C 2189.06,1618.07 2215.73,1570.4 2237,1519.5C 2254,1473.2 2265.33,1425.54 2271,1376.5C 2276.12,1323.94 2279.62,1271.27 2281.5,1218.5C 2283.42,1220 2284.59,1222 2285,1224.5C 2299.21,1350.14 2284.21,1472.14 2240,1590.5C 2227.08,1624.67 2210.75,1657 2191,1687.5C 2179,1704.83 2167,1722.17 2155,1739.5C 2118.43,1782.07 2078.6,1821.24 2035.5,1857C 1972.42,1904.38 1902.75,1939.38 1826.5,1962C 1750.27,1987.77 1671.94,1998.43 1591.5,1994C 1401.01,1985 1243.84,1908.83 1120,1765.5C 1014.53,1637.63 960.693,1490.29 958.5,1323.5C 959.212,1201.31 991.045,1087.97 1054,983.5C 1074.8,950.24 1097.8,918.573 1123,888.5C 1158.81,850.339 1197.31,815.506 1238.5,784C 1317.7,728.581 1404.7,690.248 1499.5,669C 1547.87,657.632 1596.71,648.799 1646,642.5C 1650.42,643.817 1654.92,644.817 1659.5,645.5 Z"/>
  </g>
  <g transform="matrix(0.226748, 0, 0, 0.226748, -123.95047, -49.214077)" style="">
    <path style="opacity:1" fill="#aedecf" d="M 1659.5,645.5 C 1661.38,645.393 1661.71,645.893 1660.5,647C 1658.53,647.495 1656.53,647.662 1654.5,647.5C 1656.17,646.833 1657.83,646.167 1659.5,645.5 Z"/>
  </g>
  <g transform="matrix(0.226748, 0, 0, 0.226748, -123.95047, -49.214077)" style="">
    <path style="opacity:1" fill="#7fcbb4" d="M 1285.5,939.5 C 1291.83,940.167 1298.17,940.833 1304.5,941.5C 1297.16,941.666 1289.83,941.5 1282.5,941C 1283.53,940.487 1284.53,939.987 1285.5,939.5 Z"/>
  </g>
</svg>